<svg xmlns="http://www.w3.org/2000/svg" viewBox="0 0 10 10"><path opacity=".62" fill="#fff" d="m5.88 6.185l.018-.796c.127-.099.243-.219.338-.36.47-.7.291-1.644-.399-2.107-.69-.463-1.631-.27-2.101.431-.47.7-.292 1.644.399 2.106.005.003.011.006.015.009l-.015.703 1.745.014"/><path fill="#605f5f" d="m99.52 841.39l-7.371.059c-.416.003-.621-.284-.625-.616-.002-.331.199-.621.615-.624l7.371-.059c.418-.003.621.285.625.616.002.331-.197.622-.615.624m-3.719-22.08c4.9-.038 8.889 3.89 8.928 8.772.02 2.494-1.01 4.769-2.666 6.389-.518.634-.82 1.44-.902 3.714-.021.548-.422.803-.848.787s-.807-.3-.787-.848c.09-2.408.441-3.695 1.342-4.768 1.365-1.322 2.242-3.213 2.225-5.262-.029-3.98-3.281-7.182-7.281-7.15-3.98.031-7.18 3.283-7.15 7.264.018 2.047.922 3.924 2.307 5.225.918 1.059 1.291 2.34 1.416 4.747.029.547-.348.837-.773.858-.424.023-.83-.227-.857-.772-.119-2.272-.434-3.073-.961-3.699-1.684-1.595-2.746-3.853-2.766-6.347-.04-4.882 3.89-8.871 8.773-8.91m3.734 24.12l-7.371.058c-.416.003-.621-.283-.625-.615-.002-.331.199-.622.615-.625l7.371-.057c.418-.004.621.282.625.614.002.332-.197.623-.615.625m-.781 2.045l-5.777.046c-.418.003-.621-.284-.625-.615-.002-.332.197-.622.615-.626l5.779-.044c.416-.003.621.283.623.614.004.333-.197.623-.615.625m-.877.843c-.305.67-1.088 1.149-2.01 1.156-.922.008-1.713-.46-2.027-1.125l4.03-.031" transform="matrix(.18519 0 0 .18519-12.778-148.7)"/></svg>