<svg xmlns="http://www.w3.org/2000/svg" viewBox="0 0 10 10"><g transform="matrix(.18519 0 0 .18519-12.778-148.7)"><path fill="#f9f9f9" d="m122 847c0 4.971-4.03 9-9 9h-34c-4.971 0-9-4.03-9-9v-34c0-4.971 4.03-9 9-9h34c4.971 0 9 4.03 9 9v34"/><path d="m122 847c0 4.971-4.03 9-9 9h-34c-4.971 0-9-4.03-9-9v-34c0-4.971 4.03-9 9-9h34c4.971 0 9 4.03 9 9v34z" stroke="#f8c500" stroke-miterlimit="10" stroke-width="2" fill="none"/></g><path opacity=".62" fill="#fff" d="m5.88 6.185l.018-.796c.127-.099.243-.219.338-.36.47-.7.291-1.644-.399-2.107-.69-.463-1.631-.27-2.101.431-.47.7-.292 1.644.399 2.106.005.003.011.006.015.009l-.015.703 1.745.014"/><path d="m5.675 6.489l-1.365.011c-.077.001-.115-.053-.116-.114 0-.061.037-.115.114-.116l1.365-.011c.077-.001.115.053.116.114 0 .061-.036.115-.114.116m-.689-4.089c.907-.007 1.646.72 1.653 1.624.004.462-.187.883-.494 1.183-.096.117-.152.267-.167.688-.004.101-.078.149-.157.146-.079-.003-.149-.056-.146-.157.017-.446.082-.684.249-.883.253-.245.415-.595.412-.974-.005-.737-.608-1.33-1.348-1.324-.737.006-1.33.608-1.324 1.345.003.379.171.727.427.968.17.196.239.433.262.879.005.101-.064.155-.143.159-.079.004-.154-.042-.159-.143-.022-.421-.08-.569-.178-.685-.312-.295-.509-.714-.512-1.175-.007-.904.72-1.643 1.625-1.65m.691 4.467l-1.365.011c-.077.001-.115-.052-.116-.114 0-.061.037-.115.114-.116l1.365-.011c.077-.001.115.052.116.114 0 .061-.036.115-.114.116m-.145.379l-1.07.009c-.077.001-.115-.053-.116-.114 0-.061.036-.115.114-.116l1.07-.008c.077-.001.115.052.115.114.001.062-.036.115-.114.116m-.162.156c-.056.124-.201.213-.372.214-.171.001-.317-.085-.375-.208l.746-.006" fill="#605f5f"/><path stroke-miterlimit="10" d="m1.346 1.989h1.296" fill="none" stroke="#605f5f" stroke-width=".37"/></svg>