<?xml version="1.0" encoding="UTF-8" standalone="no"?>
<!-- Generator: Adobe Illustrator 15.1.0, SVG Export Plug-In  -->

<svg
   xmlns:dc="http://purl.org/dc/elements/1.1/"
   xmlns:cc="http://creativecommons.org/ns#"
   xmlns:rdf="http://www.w3.org/1999/02/22-rdf-syntax-ns#"
   xmlns:svg="http://www.w3.org/2000/svg"
   xmlns="http://www.w3.org/2000/svg"
   xmlns:xlink="http://www.w3.org/1999/xlink"
   xmlns:sodipodi="http://sodipodi.sourceforge.net/DTD/sodipodi-0.dtd"
   xmlns:inkscape="http://www.inkscape.org/namespaces/inkscape"
   version="1.1"
   x="0px"
   y="0px"
   width="10"
   height="10"
   viewBox="0 0 10 10"
   overflow="visible"
   enable-background="new -10.658 677 64 64"
   xml:space="preserve"
   id="svg2"
   inkscape:version="0.48.5 r10040"
   sodipodi:docname="connection.svg"
   style="overflow:visible"><metadata
     id="metadata17"><rdf:RDF><cc:Work
         rdf:about=""><dc:format>image/svg+xml</dc:format><dc:type
           rdf:resource="http://purl.org/dc/dcmitype/StillImage" /></cc:Work></rdf:RDF></metadata><sodipodi:namedview
     bordercolor="#666666"
     borderopacity="1"
     gridtolerance="10"
     guidetolerance="10"
     inkscape:zoom="3.6875"
     inkscape:cx="0.13559322"
     inkscape:cy="32"
     inkscape:window-width="958"
     inkscape:window-height="1036"
     inkscape:window-x="0"
     inkscape:window-y="19"
     inkscape:window-maximized="0"
     inkscape:current-layer="svg2"
     id="namedview3"
     showgrid="false" /><defs
     id="defs4" /><g
     id="g3003"
     transform="matrix(0.1599409,0,0,0.1599409,1.1967077,-108.4018)"><g
       id="g6"><defs
         id="defs8"><rect
           height="676"
           width="1176"
           y="141"
           x="74.342003"
           id="SVGID_2_" /></defs><clipPath
         id="SVGID_4_"><use
           id="use12"
           overflow="visible"
           xlink:href="#SVGID_2_"
           style="overflow:visible"
           x="0"
           y="0"
           width="64"
           height="64" /></clipPath></g><path
       id="path14"
       d="m 27.57,704.803 c 0.49,-0.699 0.329,-1.663 -0.367,-2.153 l -0.23,-0.161 c -0.691,-0.491 -1.658,-0.321 -2.148,0.38 L 0.285,737.69 c -0.492,0.7 -0.33,1.665 0.367,2.154 l 0.228,0.162 c 0.695,0.489 1.658,0.318 2.151,-0.383 l 24.539,-34.82 z"
       inkscape:connector-curvature="0"
       style="fill:#9acf00" /><path
       id="path16"
       d="m 27.598,692.956 7.665,-10.878 c 0.976,-1.387 0.972,-3.085 -0.026,-3.786 l -0.336,-0.224 c -0.986,-0.708 -2.593,-0.146 -3.57,1.244 l -7.496,10.639"
       inkscape:connector-curvature="0"
       style="fill:#9acf00" /><path
       id="path18"
       d="m 39.167,700.794 7.664,-10.876 c 0.975,-1.388 0.972,-3.086 -0.026,-3.788 l -0.334,-0.224 c -0.987,-0.706 -2.594,-0.144 -3.57,1.247 l -7.496,10.637"
       inkscape:connector-curvature="0"
       style="fill:#9acf00" /><path
       id="path20"
       d="m 39.273,694.642 -9.262,-6.166"
       inkscape:connector-curvature="0"
       style="fill:#9acf00" /><path
       id="path22"
       d="m 25.379,685.395 -3.872,-2.578 -7.877,11.836 c -3.005,4.516 -1.905,10.713 2.289,14.988 l -1.329,3.892 7.235,4.814 3.314,-2.613 c 5.521,2.122 11.563,0.726 14.541,-3.745 l 7.878,-11.835 -3.655,-2.431"
       inkscape:connector-curvature="0"
       style="fill:#9acf00" /></g></svg>