<svg xmlns="http://www.w3.org/2000/svg" viewBox="0 0 10 10"><path d="m8.112 1.587c-.163-.205-.459-.239-.664-.077l-1.506 1.195-.736-.929c-.051-.065-.157-.077-.222-.026l-1.435 1.138c-1.219.967-1.559 2.624-.906 3.966l-2.374 1.883c-.307.244-.359.687-.115.995.244.307.687.358.995.115l2.374-1.883c1.158.941 2.85.987 4.068.021l1.435-1.138c.065-.051.077-.157.026-.222l-.736-.928 1.506-1.195c.205-.163.239-.459.077-.664-.163-.205-.459-.239-.664-.077l-1.506 1.195-1.198-1.511 1.506-1.195c.205-.163.239-.459.077-.664" fill="#008000"/></svg>