<svg xmlns="http://www.w3.org/2000/svg" xmlns:xlink="http://www.w3.org/1999/xlink" viewBox="0 0 10 10" overflow="visible" enable-background="new -10.658 677 64 64"><defs><path id="0" d="m74.34 141h1176v676h-1176z"/><clipPath><use xlink:href="#0"/></clipPath></defs><g transform="matrix(.15994 0 0 .15994 1.197-108.4)" fill="#9acf00"><path d="m27.57 704.8c.49-.699.329-1.663-.367-2.153l-.23-.161c-.691-.491-1.658-.321-2.148.38l-24.54 34.821c-.492.7-.33 1.665.367 2.154l.228.162c.695.489 1.658.318 2.151-.383l24.539-34.82"/><path d="m27.598 692.96l7.665-10.878c.976-1.387.972-3.085-.026-3.786l-.336-.224c-.986-.708-2.593-.146-3.57 1.244l-7.496 10.639"/><path d="m39.17 700.79l7.664-10.876c.975-1.388.972-3.086-.026-3.788l-.334-.224c-.987-.706-2.594-.144-3.57 1.247l-7.496 10.637"/><path d="m39.27 694.64l-9.262-6.166"/><path d="m25.379 685.39l-3.872-2.578-7.877 11.836c-3 4.516-1.905 10.713 2.289 14.988l-1.329 3.892 7.235 4.814 3.314-2.613c5.521 2.122 11.563.726 14.541-3.745l7.878-11.835-3.655-2.431"/></g></svg>