<svg xmlns="http://www.w3.org/2000/svg" viewBox="0 0 10 10"><g transform="matrix(.16949 0 0 .16949-63.898-41.36)"><path d="m435 293c0 4.971-4.03 9-9 9h-39c-4.971 0-9-4.03-9-9v-39c0-4.971 4.03-9 9-9h39c4.971 0 9 4.03 9 9v39" fill="#f9f9f9"/><path d="m435 293c0 4.971-4.03 9-9 9h-39c-4.971 0-9-4.03-9-9v-39c0-4.971 4.03-9 9-9h39c4.971 0 9 4.03 9 9v39z" stroke="#f8c500" stroke-miterlimit="10" stroke-width="2" fill="none"/></g><g fill="#a0a0a0"><path d="m429 286.16c0 1.56-1.275 2.835-2.835 2.835h-37.33c-1.56 0-2.835-1.275-2.835-2.835v-5.33c0-1.56 1.275-2.835 2.835-2.835h37.33c1.56 0 2.835 1.275 2.835 2.835v5.33" transform="matrix(.16949 0 0 .16949-64.07-41.36)"/><path d="m5.238.645h2.203v.508h-2.203z" transform="matrix(.94274.33352-.33352.94274-.169 0)"/></g></svg>