<svg xmlns="http://www.w3.org/2000/svg" viewBox="0 0 10 10"><g transform="matrix(.16949 0 0 .16949-10.508-40.847)"><path fill="#f9f9f9" d="m120 290c0 4.971-4.03 9-9 9h-39c-4.971 0-9-4.03-9-9v-39c0-4.971 4.03-9 9-9h39c4.971 0 9 4.03 9 9v39"/><path d="m120 290c0 4.971-4.03 9-9 9h-39c-4.971 0-9-4.03-9-9v-39c0-4.971 4.03-9 9-9h39c4.971 0 9 4.03 9 9v39z" stroke="#f8c500" stroke-miterlimit="10" stroke-width="2" fill="none"/></g><g transform="translate(-.171)" fill="#a0a0a0"><path d="m114 281.16c0 1.56-1.275 2.835-2.835 2.835h-37.32c-1.56 0-2.835-1.28-2.835-2.84v-5.33c0-1.55 1.275-2.83 2.835-2.83h37.33c1.56 0 2.835 1.275 2.835 2.835v5.33z" transform="matrix(.16949 0 0 .16949-10.508-40.847)"/><path d="m3.898 4.746h2.203v.508h-2.203z"/></g></svg>