<svg xmlns="http://www.w3.org/2000/svg" viewBox="0 0 10 10" overflow="visible"><g transform="matrix(.15994 0 0 .15994 1.197 0)" fill="#ce4242"><path d="m27.57 27.04c.491-.699.329-1.663-.367-2.153l-.23-.161c-.691-.491-1.658-.321-2.148.38l-24.541 34.822c-.492.7-.33 1.665.367 2.154l.228.162c.695.489 1.658.318 2.151-.383l24.54-34.821" stroke-width=".6"/><path d="m27.598 15.194l7.665-10.878c.975-1.387.971-3.085-.027-3.786l-.336-.224c-.986-.708-2.593-.146-3.57 1.244l-7.497 10.639"/><path d="m39.17 23.03l7.664-10.876c.975-1.388.971-3.086-.026-3.788l-.334-.224c-.988-.706-2.594-.144-3.571 1.246l-7.496 10.637"/><path d="m39.27 16.879l-9.262-6.166"/><path d="m25.378 7.633l-3.872-2.578-7.876 11.836c-3.01 4.516-1.905 10.713 2.289 14.988l-1.329 3.892 7.235 4.814 3.314-2.613c5.521 2.122 11.564.726 14.541-3.745l7.878-11.835-3.655-2.431"/></g></svg>