<svg xmlns="http://www.w3.org/2000/svg" viewBox="0 0 10 10"><g transform="translate(0-1042.36)"><g transform="matrix(.17241 0 0 .17241-24.482 1028.05)"><path d="m199 131c0 4.971-4.03 9-9 9h-38c-4.971 0-9-4.03-9-9v-38c0-4.971 4.03-9 9-9h38c4.971 0 9 4.03 9 9v38" fill="#f9f9f9"/><path stroke-miterlimit="10" d="m199 131c0 4.971-4.03 9-9 9h-38c-4.971 0-9-4.03-9-9v-38c0-4.971 4.03-9 9-9h38c4.971 0 9 4.03 9 9v38z" fill="none" stroke="#f8c500" stroke-width="2"/></g><path d="m3.21 1045.57h3.581v3.581h-3.581z" fill="none" stroke="#605f5f" stroke-linejoin="round" stroke-width=".419"/><circle r="6.397" stroke-miterlimit="10" cy="891.73" cx="437.73" transform="matrix(.18519 0 0 .18519-79.07 879.21)" fill="#f8c500"/></g></svg>