<svg xmlns="http://www.w3.org/2000/svg" viewBox="0 0 10 10"><path d="m2.083 6.25h-.833v1.667c0 .46.373.833.833.833h1.667v-.833h-1.667v-1.667m0-4.167h1.667v-.833h-1.667c-.46 0-.833.373-.833.833v1.667h.833v-1.667m5.833-.833h-1.667v.833h1.667v1.667h.833v-1.667c0-.46-.373-.833-.833-.833m0 6.667h-1.667v.833h1.667c.46 0 .833-.373.833-.833v-1.667h-.833v1.667m-2.917-4.583c-.921 0-1.667.746-1.667 1.667 0 .921.746 1.667 1.667 1.667.921 0 1.667-.746 1.667-1.667 0-.921-.746-1.667-1.667-1.667m0 2.5c-.46 0-.833-.373-.833-.833 0-.46.373-.833.833-.833.46 0 .833.373.833.833 0 .46-.373.833-.833.833"/></svg>