<svg xmlns="http://www.w3.org/2000/svg" viewBox="0 0 10 10"><g transform="matrix(.17241 0 0 .17241-36.897-27.759)"><path d="m271 209c0 4.971-4.03 9-9 9h-38c-4.971 0-9-4.03-9-9v-38c0-4.971 4.03-9 9-9h38c4.971 0 9 4.03 9 9v38" fill="#f9f9f9"/><path stroke-miterlimit="10" d="m271 209c0 4.971-4.03 9-9 9h-38c-4.971 0-9-4.03-9-9v-38c0-4.971 4.03-9 9-9h38c4.971 0 9 4.03 9 9v38z" fill="none" stroke="#f8c500" stroke-width="2"/></g><g transform="matrix(.17241 0 0 .17241-36.983-26.983)"><path stroke-miterlimit="10" d="m248.01 185.6c0 2.477-2.01 4.482-4.483 4.482-2.477 0-4.483-2.01-4.483-4.482 0-2.479 2.01-4.484 4.483-4.484 2.475-.001 4.483 2 4.483 4.484z" fill="#f8c500" stroke="#605f5f" stroke-width="3"/><g fill="#605f5f"><path d="m240 182.66c.333.465.311 1.05-.05 1.305-.358.255-.917.083-1.249-.384l-4.795-6.76c-.33-.466-.309-1.051.051-1.305.359-.257.918-.085 1.25.382l4.793 6.762"/><path d="m240.47 189.02c.538-.379 1.179-.398 1.435-.039.254.359.022.961-.514 1.34l-7.786 5.511c-.54.38-1.181.397-1.436.04-.254-.362-.024-.96.513-1.34l7.788-5.512"/><path d="m246.52 189.22c-.366-.519-.373-1.144-.013-1.396.36-.255.947-.043 1.312.473l5.29 7.475c.363.516.369 1.14.012 1.396-.359.252-.947.041-1.312-.475l-5.289-7.473"/><path d="m247.65 183.07c-.465.332-1.05.309-1.304-.051-.255-.36-.082-.918.386-1.251l6.762-4.786c.467-.328 1.054-.306 1.305.056.257.356.083.917-.384 1.245l-6.765 4.787"/><path d="m245 200.09c0 .642-.34.912-.759.912h-.482c-.419 0-.759-.271-.759-.912v-9.926c0-.642.34-1.162.759-1.162h.482c.419 0 .759.521.759 1.162v9.926"/><path d="m245 180.14c0 .607-.34.864-.759.864h-.482c-.419 0-.759-.257-.759-.864v-9.409c0-.608.34-.727.759-.727h.482c.419 0 .759.118.759.727v9.409"/><path d="m259 186.24c0 .419-.869.759-1.424.759h-8.572c-.555 0-1-.34-1-.759v-.482c0-.419.449-.759 1-.759h8.572c.555 0 1.424.34 1.424.759v.482"/><path d="m239 186.24c0 .419-.46.759-1.027.759h-8.778c-.567 0-1.194-.34-1.194-.759v-.482c0-.419.627-.759 1.194-.759h8.778c.567 0 1.027.34 1.027.759v.482"/></g><ellipse stroke-miterlimit="10" cx="243.53" cy="185.69" rx="6.875" ry="6.81" fill="none" stroke="#f9f9f9" stroke-width="3"/></g><circle r="6.397" stroke-miterlimit="10" cy="891.73" cx="437.73" transform="matrix(.18519 0 0 .18519-79.07-163.15)" fill="#f8c500"/></svg>