<svg xmlns="http://www.w3.org/2000/svg" viewBox="0 0 10 10"><g transform="matrix(.17857 0 0 .17857-40-57.679)"><path fill="#f9f9f9" d="m279 369c0 4.971-4.03 9-9 9h-36c-4.971 0-9-4.03-9-9v-36c0-4.971 4.03-9 9-9h36c4.971 0 9 4.03 9 9v36"/><path d="m279 369c0 4.971-4.03 9-9 9h-36c-4.971 0-9-4.03-9-9v-36c0-4.971 4.03-9 9-9h36c4.971 0 9 4.03 9 9v36z" stroke="#f8c500" stroke-miterlimit="10" stroke-width="2" fill="none"/></g><path fill="#333" d="m2.679 3.929h4.464v5h-4.464z"/><path transform="matrix(.17857 0 0 .17857-40-57.679)" stroke="#cecece" stroke-miterlimit="10" fill="none" d="m240.38 346.17l1.95 3.33h19.67l1.27-3.36"/><path fill="#f8c500" d="m3.393 3.571h3.214v1.25h-3.214z"/><g transform="matrix(.17857 0 0 .17857-40-57.679)"><path opacity=".31" fill="#bf9100" d="m260.42 350h-17.42v-7.13z"/><path stroke-width="2" stroke="#f9f9f9" stroke-miterlimit="10" fill="none" d="m252 353v14"/><path fill="#f9f9f9" d="m255 366.36l-3 3.39-3-3.39v-2.88l3 3.39 3-3.39z"/></g></svg>