<svg xmlns="http://www.w3.org/2000/svg" viewBox="0 0 10 10"><g transform="matrix(.17857 0 0 .17857-11.607-57.679)"><path fill="#f9f9f9" d="m120 369c0 4.971-4.03 9-9 9h-36c-4.971 0-9-4.03-9-9v-36c0-4.971 4.03-9 9-9h36c4.971 0 9 4.03 9 9v36"/><path d="m120 369c0 4.971-4.03 9-9 9h-36c-4.971 0-9-4.03-9-9v-36c0-4.971 4.03-9 9-9h36c4.971 0 9 4.03 9 9v36z" stroke="#f8c500" stroke-miterlimit="10" stroke-width="2" fill="none"/></g><path fill="#333" d="m2.857 3.929h4.286v5h-4.286z"/><path transform="matrix(.17857 0 0 .17857-11.607-57.679)" stroke="#cecece" stroke-miterlimit="10" fill="none" d="m81.43 346.14l1.95 3.36h19.72l1.27-3.38"/><path fill="#f8c500" d="m3.571.893h2.857v3.75h-2.857z"/><path opacity=".31" transform="matrix(.17857 0 0 .17857-11.607-57.679)" fill="#bf9100" d="M85 328.22 101.51 349 85 349z"/></svg>