<svg xmlns="http://www.w3.org/2000/svg" viewBox="4.45048e-06 -0.167999 10 10"><g transform="matrix(.06305 0 0 .06335 0-.157)"><path d="m67.37 66.43c-3.964 3.973-3.972 10.405 0 14.369l73.899 73.903c3.971 3.964 10.401 3.964 14.373 0 3.963-3.972 3.963-10.412 0-14.376l-73.903-73.889c-1.981-1.984-4.58-2.976-7.18-2.976-2.6 0-5.201.992-7.188 2.976z"/><g fill="#666"><path d="m86.16 99.58l14.09 14.1 14.37-14.369-14.1-14.09-14.364 14.368"/><path d="m0 55.829c0 30.93 25.07 56.01 56 56.01 30.924 0 55.998-25.08 55.998-56.01 0-30.92-25.07-55.997-55.998-55.997-30.93-.005-56 25.07-56 55.992z"/></g><path d="m5.804 55.611c0 27.609 22.377 49.992 49.981 49.992 27.597 0 49.98-22.383 49.98-49.992 0-27.595-22.377-49.969-49.975-49.969-27.604 0-49.981 22.374-49.981 49.972z" fill="#0ff"/><path d="m55.891 16.495c9.06 0 17.537 1.599 24.78 4.372-6.461-5.217-15.177-8.424-24.78-8.424-9.603 0-18.321 3.207-24.781 8.424 7.243-2.773 15.717-4.372 24.781-4.372" fill="#fff"/><path d="m76.75 51.43v7.932h-16.468v16.771h-8.64v-16.771h-16.468v-7.932h16.468v-16.869h8.64v16.869h16.468" fill="#1a1a1a"/></g></svg>