<svg xmlns="http://www.w3.org/2000/svg" enable-background="new 0 0 64 64" viewBox="0 0 10 10"><g transform="matrix(.08333 0 0 .08333 2.333 2.333)" fill="#666"><path d="m52 12.982h-40c-2.2 0-4 1.8-4 4v30.04c0 2.2 1.8 4 4 4h40c2.2 0 4-1.8 4-4v-30.04c0-2.2-1.8-4-4-4m-23.796 7.807l9.593 6.55-9.593 6.55v-13.1m19.797 22.423h-21.13c-.57 1.24-1.816 2.105-3.27 2.105-1.454 0-2.699-.866-3.27-2.105h-4.335c-.829 0-1.5-.672-1.5-1.5 0-.828.671-1.5 1.5-1.5h4.336c.57-1.24 1.815-2.106 3.27-2.106 1.455 0 2.7.866 3.27 2.106h21.13c.828 0 1.5.672 1.5 1.5 0 .828-.673 1.5-1.501 1.5"/><circle cx="23.605" cy="41.712" r="1.397"/></g></svg>