<svg xmlns="http://www.w3.org/2000/svg" enable-background="new 0 0 96 100" viewBox="0 0 10 10"><g transform="matrix(.10837 0 0 .1001.442.022)"><path d="m81.902 11.08h-63.813c-3.478 0-6.288 2.936-6.288 6.561v75.47c0 3.625 2.811 6.562 6.288 6.562h63.813c3.477 0 6.29-2.938 6.29-6.562v-75.47c0-3.624-2.813-6.561-6.29-6.561m.755 79.01s.173 1.517-.537 2.303c-.721.8-2.055.691-2.055.691l-60.709.032s-.856-.013-1.509-.762c-.564-.646-.557-2.02-.557-2.02l.022-70.43s0-1.043.611-1.6c.659-.602 1.612-.653 1.612-.653h60.721s1.151-.032 1.689.519c.732.749.71 1.536.71 1.536v70.38z"/><g><path d="m55.722 2.298c0 1.392-1.254 2.519-2.799 2.519h-5.596c-1.546 0-2.799-1.127-2.799-2.519 0-1.39 1.253-2.518 2.799-2.518h5.596c1.545 0 2.799 1.128 2.799 2.518"/><path d="m62.11 7.748c0-1.458-.134-3.888-1.324-3.888h-21.546c-1.113 0-1.38 2.44-1.362 3.883l24.23.005"/><path d="m67.31 12.798c0-2.084-.191-5.556-1.891-5.556h-30.78c-1.592 0-1.972 3.488-1.947 5.549l34.618.007"/></g><path d="m37.19 32.05h35.439v3.151h-35.439z"/><path d="m26.04 43.29v7.874h7.876v-7.874h-7.876m1.18 6.682v-5.51h5.514v5.51h-5.514"/><path d="m37.19 47.01h35.439v3.15h-35.439z"/><path d="m37.19 61.36h35.439v3.15h-35.439z"/><path d="m37.19 75.36h35.439v3.149h-35.439z"/><path d="m26.04 28.324v7.875h7.876v-7.875h-7.876m1.18 6.682v-5.509h5.514v5.509h-5.514"/><path d="m26.04 57.636v7.874h7.876v-7.874h-7.876m1.18 6.682v-5.511h5.514v5.511h-5.514"/><path d="m26.04 71.64v7.874h7.876v-7.874h-7.876m1.18 6.681v-5.51h5.514v5.51h-5.514"/></g><path d="m4.605 7.172v-.697h-2.271-2.271v-1.17-1.17h2.271 2.271l.004-.695.004-.695 1.549 1.279c1.197.989 1.34 1.151 1.528 1.306-.024.032-3.061 2.539-3.076 2.539-.005 0-.01-.314-.01-.697z" stroke="#0000bf" stroke-width=".045" fill="#3a88ff"/></svg>