<svg xmlns="http://www.w3.org/2000/svg" viewBox="0 0 10 10"><g transform="matrix(.17857 0 0 .17857-39.821-71.43)"><path d="m278 446c0 4.971-4.03 9-9 9h-36c-4.971 0-9-4.03-9-9v-36c0-4.971 4.03-9 9-9h36c4.971 0 9 4.03 9 9v36" fill="#f9f9f9"/><path d="m278 446c0 4.971-4.03 9-9 9h-36c-4.971 0-9-4.03-9-9v-36c0-4.971 4.03-9 9-9h36c4.971 0 9 4.03 9 9v36z" stroke-miterlimit="10" fill="none" stroke="#f8c500" stroke-width="2"/><path d="m267 446c0 1.104-.896 2-2 2h-29c-1.104 0-2-.896-2-2v-27c0-1.104.896-2 2-2h29c1.104 0 2 .896 2 2v27" fill="#a0a0a0"/></g><g opacity=".09"><path d="m267 446c0 1.104-.896 2-2 2h-29c-1.104 0-2-.896-2-2v-21c0-1.104.896-2 2-2h29c1.104 0 2 .896 2 2v21" fill="#fff" transform="matrix(.17857 0 0 .17857-39.821-71.43)"/></g><path fill="#f9f9f9" d="m2.679 3.571h4.286v4.643h-4.286z"/><path fill="#f8c500" d="m3.036 5.893h3.75v2.143h-3.75z"/><g transform="matrix(.17857 0 0 .17857-39.821-71.43)" fill="none" stroke="#919191" stroke-miterlimit="10"><path d="m248.27 411.16c1.63-1.63 4.272-1.629 5.901.001"/><path d="m249.6 412.81c.869-.869 2.276-.868 3.146 0"/><path d="m246.4 409.06c2.495-2.495 6.603-2.431 9.176.142"/></g></svg>