<svg xmlns="http://www.w3.org/2000/svg" viewBox="0 0 10 10"><g transform="matrix(.17857 0 0 .17857-53.57-71.07)"><path d="m355 444c0 4.971-4.03 9-9 9h-36c-4.971 0-9-4.03-9-9v-36c0-4.971 4.03-9 9-9h36c4.971 0 9 4.03 9 9v36" fill="#f9f9f9"/><path d="m355 444c0 4.971-4.03 9-9 9h-36c-4.971 0-9-4.03-9-9v-36c0-4.971 4.03-9 9-9h36c4.971 0 9 4.03 9 9v36z" stroke-miterlimit="10" fill="none" stroke="#f8c500" stroke-width="2"/><path d="m344 444c0 1.104-.896 2-2 2h-28c-1.104 0-2-.896-2-2v-26c0-1.104.896-2 2-2h28c1.104 0 2 .896 2 2v26" fill="#a0a0a0"/></g><g opacity=".09"><path d="m344 444c0 1.104-.896 2-2 2h-28c-1.104 0-2-.896-2-2v-20c0-1.104.896-2 2-2h28c1.104 0 2 .896 2 2v20" fill="#fff" transform="matrix(.17857 0 0 .17857-53.57-71.07)"/></g><path fill="#f9f9f9" d="m2.857 3.75h4.107v4.464h-4.107z"/><path fill="#f8c500" d="m3.214 3.929h3.571v2.143h-3.571z"/><g transform="matrix(.17857 0 0 .17857-53.57-71.07)" fill="none" stroke="#919191" stroke-miterlimit="10"><path d="m324.81 409.02c1.572-1.572 4.123-1.571 5.695.001"/><path d="m326.09 410.61c.839-.838 2.197-.837 3.036.001"/><path d="m323 407c2.408-2.408 6.372-2.347 8.854.137"/></g></svg>