<svg xmlns="http://www.w3.org/2000/svg" viewBox="0 0 10 10"><path d="m9.821 8.151c0 .921-.746 1.667-1.667 1.667h-6.296c-.921 0-1.667-.746-1.667-1.667v-6.296c0-.921.746-1.667 1.667-1.667h6.296c.921 0 1.667.746 1.667 1.667v6.296" fill="#f9f9f9"/><g stroke-miterlimit="10"><path d="m480 925c0 4.971-4.03 9-9 9h-34c-4.971 0-9-4.03-9-9v-34c0-4.971 4.03-9 9-9h34c4.971 0 9 4.03 9 9v34z" fill="none" stroke="#f8c500" stroke-width="2" transform="matrix(.18519 0 0 .18519-79.07-163.15)"/></g><g transform="translate(.031.343)"><circle cx="453.83" cy="906.15" r="10.38" transform="matrix(.18519 0 0 .18519-79.07-163.15)" fill="#fff" stroke="#545454" stroke-width=".5" stroke-miterlimit="10"/><path d="m5.266 3.643c0 .172-.139.31-.31.31-.171 0-.31-.139-.31-.31 0-.171.139-.31.31-.31.171 0 .31.139.31.31" fill="#999"/><g transform="matrix(.18519 0 0 .18519-79.07-163.15)" fill="#605f5f"><circle cx="459.96" cy="907.08" r="1.393"/><circle cx="447.63" cy="907.08" r="1.392"/></g></g><circle r="6.397" stroke-miterlimit="10" cy="891.73" cx="437.73" transform="matrix(.18519 0 0 .18519-79.07-163.15)" fill="#f8c500"/></svg>