<svg xmlns="http://www.w3.org/2000/svg" viewBox="0 0 10 10"><g transform="matrix(.18519 0 0 .18519-52.963-162.96)"><path d="m339 924c0 4.971-4.03 9-9 9h-34c-4.971 0-9-4.03-9-9v-34c0-4.971 4.03-9 9-9h34c4.971 0 9 4.03 9 9v34" fill="#f9f9f9"/><path d="m339 924c0 4.971-4.03 9-9 9h-34c-4.971 0-9-4.03-9-9v-34c0-4.971 4.03-9 9-9h34c4.971 0 9 4.03 9 9v34z" stroke="#f8c500" stroke-width="2" fill="none" stroke-miterlimit="10"/></g><g transform="translate(-.709-.398)"><circle r="10.38" cy="909.15" cx="316.83" transform="matrix(.18519 0 0 .18519-52.963-162.96)" fill="#fff" stroke="#545454" stroke-width=".5"/><path d="m6.01 4.384c0 .172-.139.31-.31.31-.171 0-.31-.139-.31-.31 0-.171.139-.31.31-.31.171 0 .31.139.31.31" fill="#999"/><g transform="matrix(.18519 0 0 .18519-52.963-162.96)" fill="#605f5f"><circle r="1.393" cy="910.08" cx="322.96"/><circle r="1.392" cy="910.08" cx="310.63"/></g></g><path stroke-miterlimit="10" d="m1.346 1.989h1.296" fill="none" stroke="#605f5f" stroke-width=".37"/></svg>