<svg xmlns="http://www.w3.org/2000/svg" viewBox="0 0 10 10"><g transform="matrix(.18519 0 0 .18519-52.963-162.96)"><path d="m339 924c0 4.971-4.03 9-9 9h-34c-4.971 0-9-4.03-9-9v-34c0-4.971 4.03-9 9-9h34c4.971 0 9 4.03 9 9v34" fill="#f9f9f9"/><g stroke-miterlimit="10"><path d="m339 924c0 4.971-4.03 9-9 9h-34c-4.971 0-9-4.03-9-9v-34c0-4.971 4.03-9 9-9h34c4.971 0 9 4.03 9 9v34z" stroke="#f8c500" stroke-width="2" fill="none"/><circle stroke-width=".5" cx="316.83" cy="909.15" stroke="#545454" r="10.38" fill="#fff"/></g></g><path d="m6.01 4.384c0 .172-.139.31-.31.31-.171 0-.31-.139-.31-.31 0-.171.139-.31.31-.31.171 0 .31.139.31.31" fill="#999"/><g fill="#605f5f" transform="matrix(.18519 0 0 .18519-52.963-162.96)"><circle cx="322.96" cy="910.08" r="1.393"/><circle cx="310.63" cy="910.08" r="1.392"/></g><path stroke-width=".37" stroke="#605f5f" stroke-miterlimit="10" fill="none" d="m2.037 2.778h1.296"/></svg>