<svg xmlns="http://www.w3.org/2000/svg" viewBox="0 0 10 10"><g transform="matrix(.17857 0 0 .17857-65.36-101.43)"><path d="m421 614c0 4.971-4.03 9-9 9h-36c-4.971 0-9-4.03-9-9v-36c0-4.971 4.03-9 9-9h36c4.971 0 9 4.03 9 9v36" fill="#f9f9f9"/><path d="m421 614c0 4.971-4.03 9-9 9h-36c-4.971 0-9-4.03-9-9v-36c0-4.971 4.03-9 9-9h36c4.971 0 9 4.03 9 9v36z" stroke="#f8c500" stroke-miterlimit="10" stroke-width="2" fill="none"/><path d="m409 611c0 1.104-.896 2-2 2h-28c-1.104 0-2-.896-2-2v-26c0-1.104.896-2 2-2h28c1.104 0 2 .896 2 2v26" fill="#a0a0a0"/></g><g opacity=".09"><path d="m409 611c0 1.104-.896 2-2 2h-28c-1.104 0-2-.896-2-2v-20c0-1.104.896-2 2-2h28c1.104 0 2 .896 2 2v20" fill="#fff" transform="matrix(.17857 0 0 .17857-65.36-101.43)"/></g><path fill="#fff" d="m2.857 3.036h1.964v4.643h-1.964z"/><path fill="#1e1e1e" d="m4.821 3.036h2.143v4.643h-2.143z"/><g fill="#f9f9f9"><path d="m2.857 3.036h2.143v4.643h-2.143z"/><path d="m5 3.036h1.964v4.643h-1.964z"/></g><path stroke-width=".179" stroke="#605f5f" stroke-miterlimit="10" fill="none" d="m4.911 3.036v4.643"/><path fill="#f8c500" d="m5.179 5.357h1.429v2.143h-1.429z"/><g stroke="#919191" fill="none" stroke-miterlimit="10" transform="matrix(.17857 0 0 .17857-65.36-101.43)"><path d="m390.3 577.68c1.801-1.8 4.721-1.799 6.521.001"/><path d="m391.77 579.51c.96-.96 2.515-.96 3.476.001"/><path d="m388.23 575.37c2.756-2.757 7.296-2.687 10.139.156"/></g></svg>