<svg xmlns="http://www.w3.org/2000/svg" viewBox="0 0 10 10"><g transform="matrix(.17857 0 0 .17857-63.75-86.79)"><path d="m412 532c0 4.971-4.03 9-9 9h-36c-4.971 0-9-4.03-9-9v-36c0-4.971 4.03-9 9-9h36c4.971 0 9 4.03 9 9v36" fill="#f9f9f9"/><path d="m412 532c0 4.971-4.03 9-9 9h-36c-4.971 0-9-4.03-9-9v-36c0-4.971 4.03-9 9-9h36c4.971 0 9 4.03 9 9v36z" stroke="#f8c500" stroke-miterlimit="10" stroke-width="2" fill="none"/><path d="m401 532c0 1.104-.896 2-2 2h-28c-1.104 0-2-.896-2-2v-27c0-1.104.896-2 2-2h28c1.104 0 2 .896 2 2v27" fill="#a0a0a0"/></g><g opacity=".09"><path d="m401 532c0 1.104-.896 2-2 2h-28c-1.104 0-2-.896-2-2v-21c0-1.104.896-2 2-2h28c1.104 0 2 .896 2 2v21" fill="#fff" transform="matrix(.17857 0 0 .17857-63.75-86.79)"/></g><path fill="#fff" d="m3.036 3.393h1.964v4.821h-1.964z"/><path fill="#1e1e1e" d="m5 3.393h1.964v4.821h-1.964z"/><g fill="#f9f9f9"><path d="m3.036 3.393h2.143v4.821h-2.143z"/><path d="m5.179 3.393h1.786v4.821h-1.786z"/></g><path stroke-width=".179" stroke="#605f5f" stroke-miterlimit="10" fill="none" d="m5.089 3.393v4.821"/><path fill="#f8c500" d="m3.214 3.571h1.607v1.786h-1.607z"/><g stroke="#919191" fill="none" stroke-miterlimit="10" transform="matrix(.17857 0 0 .17857-63.75-86.79)"><path d="m382.69 497.91c1.525-1.525 3.999-1.524 5.524.001"/><path d="m383.94 499.45c.814-.813 2.132-.812 2.945.001"/><path d="m380.94 495.95c2.336-2.336 6.182-2.276 8.59.133"/></g></svg>