<svg xmlns="http://www.w3.org/2000/svg" viewBox="0 0 10 10"><path d="m106 524c0 1.104-.896 2-2 2h-28c-1.104 0-2-.896-2-2v-26c0-1.104.896-2 2-2h28c1.104 0 2 .896 2 2v26" fill="#a0a0a0" transform="matrix(.17857 0 0 .17857-11.07-86.25)"/><g opacity=".09"><path d="m106 524c0 1.104-.896 2-2 2h-28c-1.104 0-2-.896-2-2v-20c0-1.104.896-2 2-2h28c1.104 0 2 .896 2 2v20" fill="#fff" transform="matrix(.17857 0 0 .17857-11.07-86.25)"/></g><g fill="#fff"><path d="m3.036 2.857h1.964v4.464h-1.964z"/><path d="m5 2.857h1.964v4.464h-1.964z"/></g></svg>