<svg xmlns="http://www.w3.org/2000/svg" viewBox="0 0 10 10"><g transform="matrix(.17857 0 0 .17857-89.29-87.32)"><path d="m555 535c0 4.971-4.03 9-9 9h-36c-4.971 0-9-4.03-9-9v-36c0-4.971 4.03-9 9-9h36c4.971 0 9 4.03 9 9v36" fill="#f9f9f9"/><path d="m555 535c0 4.971-4.03 9-9 9h-36c-4.971 0-9-4.03-9-9v-36c0-4.971 4.03-9 9-9h36c4.971 0 9 4.03 9 9v36z" stroke="#f8c500" stroke-miterlimit="10" stroke-width="2" fill="none"/><path d="m543 534c0 1.104-.896 2-2 2h-27c-1.104 0-2-.896-2-2v-25c0-1.104.896-2 2-2h27c1.104 0 2 .896 2 2v25" fill="#a0a0a0"/></g><g opacity=".09"><path d="m543 534c0 1.104-.896 2-2 2h-27c-1.104 0-2-.896-2-2v-19c0-1.104.896-2 2-2h27c1.104 0 2 .896 2 2v19" fill="#fff" transform="matrix(.17857 0 0 .17857-89.29-87.32)"/></g><path fill="#fff" d="m2.857 3.75h1.964v4.286h-1.964z"/><path fill="#1e1e1e" d="m4.821 3.75h2.143v4.286h-2.143z"/><g fill="#f9f9f9"><path d="m2.857 3.75h2.143v4.286h-2.143z"/><path d="m5 3.75h1.964v4.286h-1.964z"/></g><path stroke-width=".179" stroke="#605f5f" stroke-miterlimit="10" fill="none" d="m4.911 3.75v4.286"/><path fill="#f8c500" d="m3.036 6.071h1.607v1.786h-1.607z"/><g stroke="#919191" fill="none" stroke-miterlimit="10" transform="matrix(.17857 0 0 .17857-89.29-87.32)"><path d="m524.6 501.88c1.462-1.463 3.833-1.462 5.294.001"/><path d="m525.79 503.36c.779-.779 2.042-.778 2.821.001"/><path d="m522.92 500.01c2.238-2.239 5.923-2.182 8.231.126"/></g></svg>