<svg xmlns="http://www.w3.org/2000/svg" viewBox="0 0 10 10"><g transform="matrix(.17857 0 0 .17857-36.964-86.25)"><path d="m262 529c0 4.971-4.03 9-9 9h-36c-4.971 0-9-4.03-9-9v-36c0-4.971 4.03-9 9-9h36c4.971 0 9 4.03 9 9v36" fill="#f9f9f9"/><path d="m262 529c0 4.971-4.03 9-9 9h-36c-4.971 0-9-4.03-9-9v-36c0-4.971 4.03-9 9-9h36c4.971 0 9 4.03 9 9v36z" stroke="#f8c500" stroke-miterlimit="10" stroke-width="2" fill="none"/><path d="m251 528c0 1.104-.896 2-2 2h-28c-1.104 0-2-.896-2-2v-26c0-1.104.896-2 2-2h28c1.104 0 2 .896 2 2v26" fill="#a0a0a0"/></g><g opacity=".09"><path d="m251 528c0 1.104-.896 2-2 2h-28c-1.104 0-2-.896-2-2v-20c0-1.104.896-2 2-2h28c1.104 0 2 .896 2 2v20" fill="#fff" transform="matrix(.17857 0 0 .17857-36.964-86.25)"/></g><path fill="#fff" d="m3.036 3.393h1.964v4.464h-1.964z"/><path fill="#1e1e1e" d="m5 3.393h1.964v4.464h-1.964z"/><g fill="#f9f9f9"><path d="m3.036 3.393h1.964v4.464h-1.964z"/><path d="m5 3.393h1.964v4.464h-1.964z"/></g><path stroke-width=".179" stroke="#605f5f" stroke-miterlimit="10" fill="none" d="m5.089 3.393v4.464"/><path fill="#f8c500" d="m5.357 3.571h1.429v1.964h-1.429z"/><g stroke="#919191" fill="none" stroke-miterlimit="10" transform="matrix(.17857 0 0 .17857-36.964-86.25)"><path d="m232.65 495.86c1.507-1.507 3.951-1.506 5.457.001"/><path d="m233.88 497.39c.804-.804 2.105-.803 2.909.001"/><path d="m230.92 493.93c2.308-2.307 6.106-2.248 8.485.131"/></g></svg>