<svg xmlns="http://www.w3.org/2000/svg" viewBox="0 0 10 10"><text font-size="1.866" x="3.621" y="9.216" fill="#605f5f" font-family="GravurCondensed-Regular">45%</text><g transform="matrix(.17241 0 0 .17241-24.483-14.31)"><path d="m199 131c0 4.971-4.03 9-9 9h-38c-4.971 0-9-4.03-9-9v-38c0-4.971 4.03-9 9-9h38c4.971 0 9 4.03 9 9v38" fill="#f9f9f9"/><path stroke-miterlimit="10" d="m199 131c0 4.971-4.03 9-9 9h-38c-4.971 0-9-4.03-9-9v-38c0-4.971 4.03-9 9-9h38c4.971 0 9 4.03 9 9v38z" fill="none" stroke="#f8c500" stroke-width="2"/></g><g transform="translate(.135.846)"><path d="m5.446 4.768v-2.39c0-.321-.261-.581-.581-.581-.321 0-.581.261-.581.581v2.39c-.242.181-.387.466-.387.775 0 .534.434.969.969.969.534 0 .969-.435.969-.969 0-.31-.145-.594-.387-.775m-.581 1.486c-.392 0-.711-.318-.711-.711 0-.276.157-.515.388-.633v-2.532c0-.178.144-.323.323-.323.178 0 .323.144.323.323v2.532c.23.118.388.357.388.633 0 .392-.318.711-.711.711" fill="#605f5f"/><path d="m5.05 5.05v-1.544h-.367v1.544c-.202.075-.346.269-.346.497 0 .293.237.53.53.53.292 0 .53-.237.53-.53 0-.228-.144-.422-.346-.497" fill="#b3b3b3"/></g><path stroke-miterlimit="10" d="m1.346 1.989h1.296" fill="none" stroke="#605f5f" stroke-width=".37"/></svg>